<mxfile host="Electron" agent="Mozilla/5.0 (Windows NT 10.0; Win64; x64) AppleWebKit/537.36 (KHTML, like Gecko) draw.io/24.7.17 Chrome/128.0.6613.36 Electron/32.0.1 Safari/537.36" version="24.7.17">
  <diagram id="YO1wE8let1THV6CRVYN1" name="Page-1">
    <mxGraphModel dx="3292" dy="1866" grid="0" gridSize="10" guides="1" tooltips="1" connect="1" arrows="1" fold="1" page="0" pageScale="1" pageWidth="850" pageHeight="1100" math="0" shadow="0">
      <root>
        <mxCell id="0" />
        <mxCell id="1" parent="0" />
        <mxCell id="UyydUDnVdWMlEKTCM7s1-1" value="Administrator" style="swimlane;childLayout=stackLayout;horizontal=1;startSize=30;horizontalStack=0;rounded=1;fontSize=14;fontStyle=0;strokeWidth=2;resizeParent=0;resizeLast=1;shadow=0;dashed=0;align=center;" parent="1" vertex="1">
          <mxGeometry x="120" y="160" width="160" height="120" as="geometry" />
        </mxCell>
        <mxCell id="UyydUDnVdWMlEKTCM7s1-2" value="- administratorID: Long&#xa;- ime: String&#xa;- prezime: String&#xa;- username: String&#xa;- password: String" style="align=left;strokeColor=none;fillColor=none;spacingLeft=4;fontSize=12;verticalAlign=top;resizable=0;rotatable=0;part=1;" parent="UyydUDnVdWMlEKTCM7s1-1" vertex="1">
          <mxGeometry y="30" width="160" height="90" as="geometry" />
        </mxCell>
        <mxCell id="UyydUDnVdWMlEKTCM7s1-3" value="Narudzbina" style="swimlane;childLayout=stackLayout;horizontal=1;startSize=30;horizontalStack=0;rounded=1;fontSize=14;fontStyle=0;strokeWidth=2;resizeParent=0;resizeLast=1;shadow=0;dashed=0;align=center;" parent="1" vertex="1">
          <mxGeometry x="-180" y="155" width="160" height="130" as="geometry" />
        </mxCell>
        <mxCell id="UyydUDnVdWMlEKTCM7s1-4" value="- narudzbinaID: Long&#xa;- datumVreme: DateTime&#xa;- cenaDostave: double&#xa;- konacnaCena: double&#xa;- isporucena: boolean" style="align=left;strokeColor=none;fillColor=none;spacingLeft=4;fontSize=12;verticalAlign=top;resizable=0;rotatable=0;part=1;" parent="UyydUDnVdWMlEKTCM7s1-3" vertex="1">
          <mxGeometry y="30" width="160" height="100" as="geometry" />
        </mxCell>
        <mxCell id="UyydUDnVdWMlEKTCM7s1-9" value="Jelo" style="swimlane;childLayout=stackLayout;horizontal=1;startSize=30;horizontalStack=0;rounded=1;fontSize=14;fontStyle=0;strokeWidth=2;resizeParent=0;resizeLast=1;shadow=0;dashed=0;align=center;fillColor=#FFFFFF;gradientColor=none;" parent="1" vertex="1">
          <mxGeometry x="-473" y="387" width="160" height="120" as="geometry" />
        </mxCell>
        <mxCell id="UyydUDnVdWMlEKTCM7s1-10" value="- jeloID: Long&#xa;- naziv: String&#xa;- opis: String&#xa;- cena: double" style="align=left;strokeColor=none;fillColor=none;spacingLeft=4;fontSize=12;verticalAlign=top;resizable=0;rotatable=0;part=1;" parent="UyydUDnVdWMlEKTCM7s1-9" vertex="1">
          <mxGeometry y="30" width="160" height="90" as="geometry" />
        </mxCell>
        <mxCell id="UyydUDnVdWMlEKTCM7s1-5" value="StavkaNarudzbine" style="swimlane;childLayout=stackLayout;horizontal=1;startSize=30;horizontalStack=0;rounded=1;fontSize=14;fontStyle=0;strokeWidth=2;resizeParent=0;resizeLast=1;shadow=0;dashed=0;align=center;" parent="1" vertex="1">
          <mxGeometry x="-180" y="380" width="160" height="120" as="geometry" />
        </mxCell>
        <mxCell id="UyydUDnVdWMlEKTCM7s1-6" value="- rb: int&#xa;- kolicina: int&#xa;- cena: double&#xa;- napomena: String" style="align=left;strokeColor=none;fillColor=none;spacingLeft=4;fontSize=12;verticalAlign=top;resizable=0;rotatable=0;part=1;" parent="UyydUDnVdWMlEKTCM7s1-5" vertex="1">
          <mxGeometry y="30" width="160" height="90" as="geometry" />
        </mxCell>
        <mxCell id="UyydUDnVdWMlEKTCM7s1-7" value="Klijent" style="swimlane;childLayout=stackLayout;horizontal=1;startSize=30;horizontalStack=0;rounded=1;fontSize=14;fontStyle=0;strokeWidth=2;resizeParent=0;resizeLast=1;shadow=0;dashed=0;align=center;" parent="1" vertex="1">
          <mxGeometry x="-180" y="-80" width="160" height="140" as="geometry" />
        </mxCell>
        <mxCell id="UyydUDnVdWMlEKTCM7s1-8" value="- klijentID: Long&#xa;- ime: String&#xa;- prezime: String&#xa;- email: String&#xa;- telefon: String&#xa;- adresa: String&#xa;- status: String" style="align=left;strokeColor=none;fillColor=none;spacingLeft=4;fontSize=12;verticalAlign=top;resizable=0;rotatable=0;part=1;" parent="UyydUDnVdWMlEKTCM7s1-7" vertex="1">
          <mxGeometry y="30" width="160" height="110" as="geometry" />
        </mxCell>
        <mxCell id="UyydUDnVdWMlEKTCM7s1-14" value="" style="endArrow=diamondThin;endFill=0;endSize=24;html=1;rounded=0;exitX=0.5;exitY=1;exitDx=0;exitDy=0;entryX=0.5;entryY=0;entryDx=0;entryDy=0;" parent="1" source="UyydUDnVdWMlEKTCM7s1-8" target="UyydUDnVdWMlEKTCM7s1-3" edge="1">
          <mxGeometry width="160" relative="1" as="geometry">
            <mxPoint x="80" y="290" as="sourcePoint" />
            <mxPoint x="-250" y="260" as="targetPoint" />
          </mxGeometry>
        </mxCell>
        <mxCell id="UyydUDnVdWMlEKTCM7s1-15" value="" style="endArrow=diamondThin;endFill=0;endSize=24;html=1;rounded=0;exitX=0;exitY=0.25;exitDx=0;exitDy=0;entryX=0.009;entryY=0.943;entryDx=0;entryDy=0;entryPerimeter=0;" parent="1" source="UyydUDnVdWMlEKTCM7s1-2" target="UyydUDnVdWMlEKTCM7s1-23" edge="1">
          <mxGeometry width="160" relative="1" as="geometry">
            <mxPoint x="-90" y="70" as="sourcePoint" />
            <mxPoint x="-90" y="170" as="targetPoint" />
          </mxGeometry>
        </mxCell>
        <mxCell id="UyydUDnVdWMlEKTCM7s1-19" value="1" style="text;html=1;align=center;verticalAlign=middle;resizable=0;points=[];autosize=1;strokeColor=none;fillColor=none;fontSize=15;" parent="1" vertex="1">
          <mxGeometry x="-100" y="60" width="30" height="30" as="geometry" />
        </mxCell>
        <mxCell id="UyydUDnVdWMlEKTCM7s1-20" value="1" style="text;html=1;align=center;verticalAlign=middle;resizable=0;points=[];autosize=1;strokeColor=none;fillColor=none;fontSize=15;" parent="1" vertex="1">
          <mxGeometry x="90" y="180" width="30" height="30" as="geometry" />
        </mxCell>
        <mxCell id="UyydUDnVdWMlEKTCM7s1-22" value="1" style="text;html=1;align=center;verticalAlign=middle;resizable=0;points=[];autosize=1;strokeColor=none;fillColor=none;fontSize=15;" parent="1" vertex="1">
          <mxGeometry x="-320" y="415" width="30" height="30" as="geometry" />
        </mxCell>
        <mxCell id="UyydUDnVdWMlEKTCM7s1-23" value="*" style="text;html=1;align=center;verticalAlign=middle;resizable=0;points=[];autosize=1;strokeColor=none;fillColor=none;fontSize=18;" parent="1" vertex="1">
          <mxGeometry x="-20" y="175" width="30" height="40" as="geometry" />
        </mxCell>
        <mxCell id="UyydUDnVdWMlEKTCM7s1-24" value="*" style="text;html=1;align=center;verticalAlign=middle;resizable=0;points=[];autosize=1;strokeColor=none;fillColor=none;fontSize=18;" parent="1" vertex="1">
          <mxGeometry x="-100" y="120" width="30" height="40" as="geometry" />
        </mxCell>
        <mxCell id="UyydUDnVdWMlEKTCM7s1-25" value="*" style="text;html=1;align=center;verticalAlign=middle;resizable=0;points=[];autosize=1;strokeColor=none;fillColor=none;fontSize=18;" parent="1" vertex="1">
          <mxGeometry x="-100" y="350" width="30" height="40" as="geometry" />
        </mxCell>
        <mxCell id="UyydUDnVdWMlEKTCM7s1-18" value="" style="endArrow=diamondThin;endFill=1;endSize=24;html=1;rounded=0;exitX=0.5;exitY=0;exitDx=0;exitDy=0;entryX=0.5;entryY=1;entryDx=0;entryDy=0;" parent="1" source="UyydUDnVdWMlEKTCM7s1-5" target="UyydUDnVdWMlEKTCM7s1-4" edge="1">
          <mxGeometry width="160" relative="1" as="geometry">
            <mxPoint x="-140" y="230" as="sourcePoint" />
            <mxPoint x="-210" y="220" as="targetPoint" />
          </mxGeometry>
        </mxCell>
        <mxCell id="UyydUDnVdWMlEKTCM7s1-26" value="*" style="text;html=1;align=center;verticalAlign=middle;resizable=0;points=[];autosize=1;strokeColor=none;fillColor=none;fontSize=18;" parent="1" vertex="1">
          <mxGeometry x="-220" y="410" width="30" height="40" as="geometry" />
        </mxCell>
        <mxCell id="XFtaxxGEFlIb2k0JQkjI-3" value="" style="endArrow=none;html=1;rounded=0;exitX=0.5;exitY=0;exitDx=0;exitDy=0;entryX=0.5;entryY=1;entryDx=0;entryDy=0;" edge="1" parent="1" source="XFtaxxGEFlIb2k0JQkjI-1" target="UyydUDnVdWMlEKTCM7s1-2">
          <mxGeometry width="50" height="50" relative="1" as="geometry">
            <mxPoint x="-70" y="390" as="sourcePoint" />
            <mxPoint x="210" y="320" as="targetPoint" />
          </mxGeometry>
        </mxCell>
        <mxCell id="XFtaxxGEFlIb2k0JQkjI-4" value="*" style="text;html=1;align=center;verticalAlign=middle;resizable=0;points=[];autosize=1;strokeColor=none;fillColor=none;fontSize=18;" vertex="1" parent="1">
          <mxGeometry x="275" y="340" width="30" height="40" as="geometry" />
        </mxCell>
        <mxCell id="XFtaxxGEFlIb2k0JQkjI-5" value="*" style="text;html=1;align=center;verticalAlign=middle;resizable=0;points=[];autosize=1;strokeColor=none;fillColor=none;fontSize=18;" vertex="1" parent="1">
          <mxGeometry x="210" y="310" width="160" height="40" as="geometry" />
        </mxCell>
        <mxCell id="XFtaxxGEFlIb2k0JQkjI-8" value="" style="endArrow=none;dashed=1;html=1;rounded=0;" edge="1" parent="1">
          <mxGeometry width="50" height="50" relative="1" as="geometry">
            <mxPoint x="200" y="340" as="sourcePoint" />
            <mxPoint x="300" y="340" as="targetPoint" />
          </mxGeometry>
        </mxCell>
        <mxCell id="XFtaxxGEFlIb2k0JQkjI-9" value="AdP" style="swimlane;childLayout=stackLayout;horizontal=1;startSize=30;horizontalStack=0;rounded=1;fontSize=14;fontStyle=0;strokeWidth=2;resizeParent=0;resizeLast=1;shadow=0;dashed=0;align=center;" vertex="1" parent="1">
          <mxGeometry x="300" y="280" width="160" height="120" as="geometry" />
        </mxCell>
        <mxCell id="XFtaxxGEFlIb2k0JQkjI-10" value="- datumOd: Date&#xa;- datumDo: Date&#xa;" style="align=left;strokeColor=none;fillColor=none;spacingLeft=4;fontSize=12;verticalAlign=top;resizable=0;rotatable=0;part=1;" vertex="1" parent="XFtaxxGEFlIb2k0JQkjI-9">
          <mxGeometry y="30" width="160" height="90" as="geometry" />
        </mxCell>
        <mxCell id="XFtaxxGEFlIb2k0JQkjI-12" value="1" style="text;html=1;align=center;verticalAlign=middle;resizable=0;points=[];autosize=1;strokeColor=none;fillColor=none;fontSize=15;" vertex="1" parent="1">
          <mxGeometry x="200" y="280" width="30" height="30" as="geometry" />
        </mxCell>
        <mxCell id="XFtaxxGEFlIb2k0JQkjI-13" value="1" style="text;html=1;align=center;verticalAlign=middle;resizable=0;points=[];autosize=1;strokeColor=none;fillColor=none;fontSize=15;" vertex="1" parent="1">
          <mxGeometry x="200" y="360" width="30" height="30" as="geometry" />
        </mxCell>
        <mxCell id="XFtaxxGEFlIb2k0JQkjI-15" value="Mesto" style="swimlane;childLayout=stackLayout;horizontal=1;startSize=30;horizontalStack=0;rounded=1;fontSize=14;fontStyle=0;strokeWidth=2;resizeParent=0;resizeLast=1;shadow=0;dashed=0;align=center;" vertex="1" parent="1">
          <mxGeometry x="-480" y="-70" width="160" height="120" as="geometry" />
        </mxCell>
        <mxCell id="XFtaxxGEFlIb2k0JQkjI-16" value="- mestoID: Long&#xa;- naziv: String&#xa;" style="align=left;strokeColor=none;fillColor=none;spacingLeft=4;fontSize=12;verticalAlign=top;resizable=0;rotatable=0;part=1;" vertex="1" parent="XFtaxxGEFlIb2k0JQkjI-15">
          <mxGeometry y="30" width="160" height="90" as="geometry" />
        </mxCell>
        <mxCell id="XFtaxxGEFlIb2k0JQkjI-17" value="" style="endArrow=diamondThin;endFill=0;endSize=24;html=1;rounded=0;exitX=0;exitY=0.25;exitDx=0;exitDy=0;entryX=0.009;entryY=0.943;entryDx=0;entryDy=0;entryPerimeter=0;" edge="1" parent="1">
          <mxGeometry width="160" relative="1" as="geometry">
            <mxPoint x="-180" y="-1" as="sourcePoint" />
            <mxPoint x="-320" y="-1" as="targetPoint" />
          </mxGeometry>
        </mxCell>
        <mxCell id="XFtaxxGEFlIb2k0JQkjI-18" value="*" style="text;html=1;align=center;verticalAlign=middle;resizable=0;points=[];autosize=1;strokeColor=none;fillColor=none;fontSize=18;" vertex="1" parent="1">
          <mxGeometry x="-310" y="-30" width="30" height="40" as="geometry" />
        </mxCell>
        <mxCell id="XFtaxxGEFlIb2k0JQkjI-19" value="1" style="text;html=1;align=center;verticalAlign=middle;resizable=0;points=[];autosize=1;strokeColor=none;fillColor=none;fontSize=15;" vertex="1" parent="1">
          <mxGeometry x="-210" y="-30" width="30" height="30" as="geometry" />
        </mxCell>
        <mxCell id="XFtaxxGEFlIb2k0JQkjI-22" value="" style="endArrow=diamondThin;endFill=0;endSize=24;html=1;rounded=0;entryX=0.009;entryY=0.943;entryDx=0;entryDy=0;entryPerimeter=0;" edge="1" parent="1">
          <mxGeometry width="160" relative="1" as="geometry">
            <mxPoint x="-310" y="454" as="sourcePoint" />
            <mxPoint x="-180" y="454" as="targetPoint" />
          </mxGeometry>
        </mxCell>
        <mxCell id="XFtaxxGEFlIb2k0JQkjI-26" value="" style="endArrow=none;html=1;rounded=0;entryX=0.135;entryY=0.003;entryDx=0;entryDy=0;entryPerimeter=0;" edge="1" parent="1">
          <mxGeometry width="50" height="50" relative="1" as="geometry">
            <mxPoint x="-403" y="-72" as="sourcePoint" />
            <mxPoint x="-403.08500000000004" y="-194" as="targetPoint" />
          </mxGeometry>
        </mxCell>
        <mxCell id="XFtaxxGEFlIb2k0JQkjI-27" value="" style="endArrow=none;html=1;rounded=0;entryX=0.135;entryY=0.003;entryDx=0;entryDy=0;entryPerimeter=0;" edge="1" parent="1">
          <mxGeometry width="50" height="50" relative="1" as="geometry">
            <mxPoint x="-102" y="-78" as="sourcePoint" />
            <mxPoint x="-102" y="-194" as="targetPoint" />
          </mxGeometry>
        </mxCell>
        <mxCell id="XFtaxxGEFlIb2k0JQkjI-28" value="" style="endArrow=none;html=1;rounded=0;entryX=0.135;entryY=0.003;entryDx=0;entryDy=0;entryPerimeter=0;" edge="1" parent="1">
          <mxGeometry width="50" height="50" relative="1" as="geometry">
            <mxPoint x="193" y="160" as="sourcePoint" />
            <mxPoint x="193" y="-194" as="targetPoint" />
          </mxGeometry>
        </mxCell>
        <mxCell id="XFtaxxGEFlIb2k0JQkjI-1" value="Pozicija" style="swimlane;childLayout=stackLayout;horizontal=1;startSize=30;horizontalStack=0;rounded=1;fontSize=14;fontStyle=0;strokeWidth=2;resizeParent=0;resizeLast=1;shadow=0;dashed=0;align=center;" vertex="1" parent="1">
          <mxGeometry x="120" y="390" width="160" height="120" as="geometry" />
        </mxCell>
        <mxCell id="XFtaxxGEFlIb2k0JQkjI-2" value="- pozicijaID: Long&#xa;- naziv: String&#xa;" style="align=left;strokeColor=none;fillColor=none;spacingLeft=4;fontSize=12;verticalAlign=top;resizable=0;rotatable=0;part=1;" vertex="1" parent="XFtaxxGEFlIb2k0JQkjI-1">
          <mxGeometry y="30" width="160" height="90" as="geometry" />
        </mxCell>
        <mxCell id="XFtaxxGEFlIb2k0JQkjI-29" value="" style="endArrow=none;html=1;rounded=0;entryX=0.135;entryY=0.003;entryDx=0;entryDy=0;entryPerimeter=0;" edge="1" parent="1">
          <mxGeometry width="50" height="50" relative="1" as="geometry">
            <mxPoint x="388" y="280" as="sourcePoint" />
            <mxPoint x="388" y="-194" as="targetPoint" />
          </mxGeometry>
        </mxCell>
        <mxCell id="XFtaxxGEFlIb2k0JQkjI-30" value="" style="endArrow=none;html=1;rounded=0;" edge="1" parent="1">
          <mxGeometry width="50" height="50" relative="1" as="geometry">
            <mxPoint x="-544" y="-197" as="sourcePoint" />
            <mxPoint x="518" y="-192" as="targetPoint" />
          </mxGeometry>
        </mxCell>
        <mxCell id="XFtaxxGEFlIb2k0JQkjI-31" value="" style="endArrow=none;html=1;rounded=0;" edge="1" parent="1">
          <mxGeometry width="50" height="50" relative="1" as="geometry">
            <mxPoint x="283" y="460" as="sourcePoint" />
            <mxPoint x="518" y="460" as="targetPoint" />
          </mxGeometry>
        </mxCell>
        <mxCell id="XFtaxxGEFlIb2k0JQkjI-32" value="" style="endArrow=none;html=1;rounded=0;" edge="1" parent="1">
          <mxGeometry width="50" height="50" relative="1" as="geometry">
            <mxPoint x="515" y="459" as="sourcePoint" />
            <mxPoint x="518" y="-192" as="targetPoint" />
          </mxGeometry>
        </mxCell>
        <mxCell id="XFtaxxGEFlIb2k0JQkjI-33" value="" style="endArrow=none;html=1;rounded=0;" edge="1" parent="1">
          <mxGeometry width="50" height="50" relative="1" as="geometry">
            <mxPoint x="-20" y="458" as="sourcePoint" />
            <mxPoint x="119" y="458" as="targetPoint" />
          </mxGeometry>
        </mxCell>
        <mxCell id="XFtaxxGEFlIb2k0JQkjI-34" value="" style="endArrow=none;html=1;rounded=0;" edge="1" parent="1">
          <mxGeometry width="50" height="50" relative="1" as="geometry">
            <mxPoint x="-544" y="455" as="sourcePoint" />
            <mxPoint x="-473" y="455" as="targetPoint" />
          </mxGeometry>
        </mxCell>
        <mxCell id="XFtaxxGEFlIb2k0JQkjI-35" value="" style="endArrow=none;html=1;rounded=0;" edge="1" parent="1">
          <mxGeometry width="50" height="50" relative="1" as="geometry">
            <mxPoint x="-544" y="454" as="sourcePoint" />
            <mxPoint x="-541" y="-197" as="targetPoint" />
          </mxGeometry>
        </mxCell>
        <mxCell id="XFtaxxGEFlIb2k0JQkjI-36" value="" style="endArrow=classic;html=1;rounded=0;endFill=0;" edge="1" parent="1">
          <mxGeometry relative="1" as="geometry">
            <mxPoint x="-216" y="-195" as="sourcePoint" />
            <mxPoint x="-216" y="-357" as="targetPoint" />
          </mxGeometry>
        </mxCell>
        <mxCell id="XFtaxxGEFlIb2k0JQkjI-37" value="Label" style="edgeLabel;resizable=0;html=1;;align=center;verticalAlign=middle;" connectable="0" vertex="1" parent="XFtaxxGEFlIb2k0JQkjI-36">
          <mxGeometry relative="1" as="geometry" />
        </mxCell>
        <mxCell id="XFtaxxGEFlIb2k0JQkjI-38" value="&lt;div&gt;&lt;br&gt;&lt;/div&gt;&lt;div&gt;&lt;br&gt;&lt;/div&gt;" style="edgeLabel;resizable=0;html=1;;align=left;verticalAlign=bottom;" connectable="0" vertex="1" parent="XFtaxxGEFlIb2k0JQkjI-36">
          <mxGeometry x="-1" relative="1" as="geometry" />
        </mxCell>
        <mxCell id="XFtaxxGEFlIb2k0JQkjI-39" value="&lt;b&gt;extends&lt;/b&gt;" style="edgeLabel;html=1;align=center;verticalAlign=middle;resizable=0;points=[];fontSize=13;" vertex="1" connectable="0" parent="XFtaxxGEFlIb2k0JQkjI-36">
          <mxGeometry x="0.0165" y="-5" relative="1" as="geometry">
            <mxPoint as="offset" />
          </mxGeometry>
        </mxCell>
        <mxCell id="XFtaxxGEFlIb2k0JQkjI-44" value="GenericDomainObject" style="swimlane;childLayout=stackLayout;horizontal=1;startSize=30;horizontalStack=0;rounded=1;fontSize=14;fontStyle=0;strokeWidth=2;resizeParent=0;resizeLast=1;shadow=0;dashed=0;align=center;" vertex="1" parent="1">
          <mxGeometry x="-387" y="-566" width="340" height="210" as="geometry" />
        </mxCell>
        <mxCell id="XFtaxxGEFlIb2k0JQkjI-45" value="+ tableName(): String&#xa;+ alias(): String&#xa;+ join: String&#xa;+ returnList(rs: ResultSet): List&lt;GenericDomainObject&gt;&#xa;+ columnsForInsert(): String&#xa;+ valuesForInsert(): String&#xa;+ valuesForUpdate(): String&#xa;+ condition(): String&#xa;+ conditionForInsert(): String&#xa;" style="align=left;strokeColor=none;fillColor=none;spacingLeft=4;fontSize=12;verticalAlign=top;resizable=0;rotatable=0;part=1;" vertex="1" parent="XFtaxxGEFlIb2k0JQkjI-44">
          <mxGeometry y="30" width="340" height="180" as="geometry" />
        </mxCell>
        <mxCell id="XFtaxxGEFlIb2k0JQkjI-46" value="" style="endArrow=classic;html=1;rounded=0;entryX=1.014;entryY=0.377;entryDx=0;entryDy=0;entryPerimeter=0;dashed=1;endFill=0;" edge="1" parent="1">
          <mxGeometry width="50" height="50" relative="1" as="geometry">
            <mxPoint x="137.24" y="-464.86" as="sourcePoint" />
            <mxPoint x="-46.99999999999978" y="-465.0000000000001" as="targetPoint" />
          </mxGeometry>
        </mxCell>
        <mxCell id="XFtaxxGEFlIb2k0JQkjI-47" value="GenericSO" style="swimlane;childLayout=stackLayout;horizontal=1;startSize=30;horizontalStack=0;rounded=1;fontSize=14;fontStyle=0;strokeWidth=2;resizeParent=0;resizeLast=1;shadow=0;dashed=0;align=center;" vertex="1" parent="1">
          <mxGeometry x="140" y="-532" width="305" height="128" as="geometry" />
        </mxCell>
        <mxCell id="XFtaxxGEFlIb2k0JQkjI-48" value="+ genericOperate(gdo: GenericDomainObject)&#xa;# verify(gdo: GenericDomainObject)&#xa;# operate(gdo: GenericDomainObject)&#xa;+ commit()&#xa;+ rollback()&#xa;" style="align=left;strokeColor=none;fillColor=none;spacingLeft=4;fontSize=12;verticalAlign=top;resizable=0;rotatable=0;part=1;" vertex="1" parent="XFtaxxGEFlIb2k0JQkjI-47">
          <mxGeometry y="30" width="305" height="98" as="geometry" />
        </mxCell>
      </root>
    </mxGraphModel>
  </diagram>
</mxfile>
